<svg width="20" height="14" viewBox="0 0 20 14" fill="none" xmlns="http://www.w3.org/2000/svg">
<path d="M7.33929 7C7.33929 7.63782 7.60995 8.24952 8.09172 8.70053C8.57349 9.15154 9.22692 9.40491 9.90825 9.40491C10.5896 9.40491 11.243 9.15154 11.7248 8.70053C12.2065 8.24952 12.4772 7.63782 12.4772 7C12.4772 6.36218 12.2065 5.75048 11.7248 5.29947C11.243 4.84847 10.5896 4.59509 9.90825 4.59509C9.22692 4.59509 8.57349 4.84847 8.09172 5.29947C7.60995 5.75048 7.33929 6.36218 7.33929 7ZM19.8675 6.44601C17.6931 2.15798 14.4062 0 9.99999 0C5.59148 0 2.30689 2.15798 0.132451 6.44816C0.0452335 6.62105 0 6.80987 0 7.00107C0 7.19227 0.0452335 7.3811 0.132451 7.55399C2.30689 11.842 5.59378 14 9.99999 14C14.4085 14 17.6931 11.842 19.8675 7.55184C20.0442 7.20399 20.0442 6.80031 19.8675 6.44601ZM9.90825 10.7791C7.67876 10.7791 5.87132 9.08712 5.87132 7C5.87132 4.91288 7.67876 3.22086 9.90825 3.22086C12.1377 3.22086 13.9452 4.91288 13.9452 7C13.9452 9.08712 12.1377 10.7791 9.90825 10.7791Z" fill="#2B6D64"/>
</svg>
